<svg xmlns="http://www.w3.org/2000/svg" width="512" height="512" fill-rule="evenodd" clip-rule="evenodd" image-rendering="optimizeQuality" shape-rendering="geometricPrecision" text-rendering="geometricPrecision" viewBox="0 0 512 512" id="apartment"><path fill-rule="nonzero" d="M307.34 6.96l0 114.95 198.91 25.61c3.19,0.13 5.75,2.76 5.75,5.99l0 351.53c0,3.32 -2.69,6 -6,6l-500 0c-3.31,0 -6,-2.68 -6,-6l0 -498.08c0,-3.32 2.69,-6 6,-6l295.34 0c3.31,0 6,2.68 6,6zm-175.22 29.76l43.1 0c3.31,0 6,2.69 6,6l0 75.03c0,3.32 -2.69,6 -6,6l-43.1 0c-3.31,0 -6,-2.68 -6,-6l0 -75.03c0,-3.31 2.69,-6 6,-6zm37.1 12l-31.1 0 0 63.03 31.1 0 0 -63.03zm265.65 450.32l0 -68.2c0,-27.38 -33.43,-41.83 -53.23,-22.03 -5.66,5.66 -9.17,13.46 -9.17,22.03l0 68.2 62.4 0zm-74.4 0l0 -68.2c0,-38.04 46.37,-57.86 73.71,-30.52 7.83,7.83 12.69,18.63 12.69,30.52l0 68.2 53.13 0 0 -340.27 -192.66 -24.81 0 365.08 53.13 0zm66.83 -211.13l43.1 0c3.31,0 6,2.68 6,6l0 70.74c0,3.31 -2.69,6 -6,6l-43.1 0c-3.32,0 -6,-2.69 -6,-6l0 -70.74c0,-3.32 2.68,-6 6,-6zm37.1 12l-31.1 0 0 58.74 31.1 0 0 -58.74zm-127.46 -12l43.1 0c3.32,0 6,2.68 6,6l0 70.74c0,3.31 -2.68,6 -6,6l-43.1 0c-3.31,0 -6,-2.69 -6,-6l0 -70.74c0,-3.32 2.69,-6 6,-6zm37.1 12l-31.1 0 0 58.74 31.1 0 0 -58.74zm53.26 -116.61l43.1 0c3.31,0 6,2.68 6,6l0 70.74c0,3.31 -2.69,6 -6,6l-43.1 0c-3.32,0 -6,-2.69 -6,-6l0 -70.74c0,-3.32 2.68,-6 6,-6zm37.1 12l-31.1 0 0 58.74 31.1 0 0 -58.74zm-127.46 -12l43.1 0c3.32,0 6,2.68 6,6l0 70.74c0,3.31 -2.68,6 -6,6l-43.1 0c-3.31,0 -6,-2.69 -6,-6l0 -70.74c0,-3.32 2.69,-6 6,-6zm37.1 12l-31.1 0 0 58.74 31.1 0 0 -58.74zm-214.37 185.58l0 118.16 74.12 0 0 -118.16 -74.12 0zm-12 118.16l0 -118.16 -74.12 0 0 118.16 74.12 0zm-86.12 0l0 -124.16c0,-3.31 2.68,-6 6,-6l172.24 0c3.32,0 6,2.69 6,6l0 124.16 49.55 0 0 -486.08 -283.34 0 0 486.08 49.55 0zm160.92 -240.73l43.11 0c3.31,0 6,2.68 6,6l0 75.03c0,3.31 -2.69,6 -6,6l-43.11 0c-3.31,0 -6,-2.69 -6,-6l0 -75.03c0,-3.32 2.69,-6 6,-6zm37.11 12l-31.11 0 0 63.03 31.11 0 0 -63.03zm-127.46 -12l43.1 0c3.31,0 6,2.68 6,6l0 75.03c0,3.31 -2.69,6 -6,6l-43.1 0c-3.31,0 -6,-2.69 -6,-6l0 -75.03c0,-3.32 2.69,-6 6,-6zm37.1 12l-31.1 0 0 63.03 31.1 0 0 -63.03zm-127.46 -12l43.11 0c3.31,0 6,2.68 6,6l0 75.03c0,3.31 -2.69,6 -6,6l-43.11 0c-3.31,0 -6,-2.69 -6,-6l0 -75.03c0,-3.32 2.69,-6 6,-6zm37.11 12l-31.11 0 0 63.03 31.11 0 0 -63.03zm143.6 -122.8l43.11 0c3.31,0 6,2.69 6,6l0 75.04c0,3.31 -2.69,6 -6,6l-43.11 0c-3.31,0 -6,-2.69 -6,-6l0 -75.04c0,-3.31 2.69,-6 6,-6zm37.11 12l-31.11 0 0 63.04 31.11 0 0 -63.04zm-127.46 -12l43.1 0c3.31,0 6,2.69 6,6l0 75.04c0,3.31 -2.69,6 -6,6l-43.1 0c-3.31,0 -6,-2.69 -6,-6l0 -75.04c0,-3.31 2.69,-6 6,-6zm37.1 12l-31.1 0 0 63.04 31.1 0 0 -63.04zm-127.46 -12l43.11 0c3.31,0 6,2.69 6,6l0 75.04c0,3.31 -2.69,6 -6,6l-43.11 0c-3.31,0 -6,-2.69 -6,-6l0 -75.04c0,-3.31 2.69,-6 6,-6zm37.11 12l-31.11 0 0 63.04 31.11 0 0 -63.04zm143.6 -122.79l43.11 0c3.31,0 6,2.69 6,6l0 75.03c0,3.32 -2.69,6 -6,6l-43.11 0c-3.31,0 -6,-2.68 -6,-6l0 -75.03c0,-3.31 2.69,-6 6,-6zm37.11 12l-31.11 0 0 63.03 31.11 0 0 -63.03zm-217.82 -12l43.11 0c3.31,0 6,2.69 6,6l0 75.03c0,3.32 -2.69,6 -6,6l-43.11 0c-3.31,0 -6,-2.68 -6,-6l0 -75.03c0,-3.31 2.69,-6 6,-6zm37.11 12l-31.11 0 0 63.03 31.11 0 0 -63.03z"></path></svg>