<svg xmlns="http://www.w3.org/2000/svg" viewBox="0 0 64 64" id="mall"><path d="M60,48.16c0-2.32-1.51-4.37-3.72-5.06l-1.28-.4v-8.29l2.24-2.24c2.87-2.87,3.19-7.44,.75-10.68-.61-.81-1.4-1.45-2.37-1.76-2.12-.68-4.26,.02-5.53,1.65h0c-2.52,3.24-2.23,7.88,.67,10.78l2.24,2.24v7.66l-9-2.81V5.25c0-.4-.24-.76-.6-.92-7.35-3.11-15.45-3.11-22.8,0-.37,.15-.6,.52-.6,.92V31.23s-11.09-6.65-11.09-6.65c-.96-.68-2.21-.77-3.26-.23-1.02,.53-1.66,1.56-1.66,2.69V60h-1c-.55,0-1,.45-1,1h0c0,.55,.45,1,1,1H61c.55,0,1-.45,1-1h0c0-.55-.45-1-1-1h-1v-11.84Zm-7.82-17.4c-2.16-2.16-2.4-5.6-.58-8.04,.41-.55,.99-.99,1.66-1.15,1.19-.29,2.36,.13,3.07,1.05,1.9,2.45,1.69,5.95-.51,8.14l-.82,.82v-4.59c0-.55-.45-1-1-1h0c-.55,0-1,.45-1,1v4.59l-.82-.82Zm3.51,14.25c1.39,.43,2.32,1.7,2.32,3.15v11.84h-14v-18.64l11.68,3.65Zm-22.68,.99h4v14h-4v-14Zm-2,14h-4v-14h4v14Zm7-16h-12c-.55,0-1,.45-1,1v15h-3v-18.17l6.12-1.11c2.57-.47,5.18-.47,7.75,0l6.12,1.11v18.17h-3v-15c0-.55-.45-1-1-1ZM22,13.83l5-.91v6.97l-5,.91v-6.97Zm0,19l5-.91v6.97l-5,.91v-6.97Zm20-2.03l-5-.91v-7.97l5,.91v7.97Zm-7-1.22c-2-.26-4-.26-6,0v-7.97c2-.26,4-.26,6,0v7.97Zm-6,2.02c2-.28,4-.28,6,0v6.99c-2-.26-4-.26-6,0v-6.99Zm8,.33l5,.91v6.97l-5-.91v-6.97Zm5-11.12l-5-.91v-6.97l5,.91v6.97Zm-7-1.21c-2-.24-4-.24-6,0v-6.98c2-.26,4-.26,6,0v6.98Zm-13,3.24l5-.91v7.97l-5,.91v-7.97Zm20-11.03l-5-.91V4.48c1.69,.32,3.36,.8,5,1.45v5.88Zm-7-7.62v6.42c-2-.24-4-.24-6,0V4.18c2-.22,4-.22,6,0Zm-8,.3v6.42l-5,.91V5.92c1.64-.65,3.31-1.13,5-1.45ZM6,39H14c.55,0,1-.45,1-1h0c0-.55-.45-1-1-1H6v-2h4c.55,0,1-.45,1-1h0c0-.55-.45-1-1-1H6v-5.96c0-.56,.4-.82,.57-.91,.39-.2,.83-.17,1.24,.12l12.18,7.31v26.43H6v-21Z"></path><path d="M47 58h8c.55 0 1-.45 1-1v-10c0-.55-.45-1-1-1h-8c-.55 0-1 .45-1 1v10c0 .55.45 1 1 1zm1-2v-3h6v3h-6zm6-8v3h-6v-3h6zM17 41H9c-.55 0-1 .45-1 1v15c0 .55.45 1 1 1h8c.55 0 1-.45 1-1v-15c0-.55-.45-1-1-1zm-1 2v3h-6v-3h6zm0 5v3h-6v-3h6zm-6 8v-3h6v3h-6z"></path></svg>