<svg xmlns="http://www.w3.org/2000/svg" fill-rule="evenodd" stroke-linejoin="round" stroke-miterlimit="2" clip-rule="evenodd" viewBox="0 0 96 96" id="house"><rect width="96" height="96" fill="none"></rect><path d="M47.981,18.636l-21.06,0c-0.956,0 -1.871,0.386 -2.539,1.069c-2.463,2.522 -11.874,12.155 -17.014,17.417c-0.998,1.021 -1.286,2.541 -0.732,3.857c0.554,1.316 1.843,2.172 3.271,2.172c-0,-0 25.618,-0 25.618,-0c0.828,-0 1.5,-0.673 1.5,-1.5c0,-0.828 -0.672,-1.5 -1.5,-1.5l-25.618,-0c-0.221,-0 -0.42,-0.133 -0.506,-0.336c-0.086,-0.204 -0.041,-0.439 0.113,-0.597c0,-0 17.014,-17.416 17.014,-17.416c0.103,-0.106 0.245,-0.166 0.393,-0.166c-0,0 21.06,0 21.06,0c0.828,0 1.5,-0.672 1.5,-1.5c0,-0.828 -0.672,-1.5 -1.5,-1.5Z"></path><path d="M10.889 91.916l30.636 0c.828 0 1.5-.672 1.5-1.5 0-.828-.672-1.5-1.5-1.5l-30.636 0c-.827 0-1.5.672-1.5 1.5 0 .828.673 1.5 1.5 1.5zm-1.5-50.265l0 36.597c0 .828.673 1.5 1.5 1.5.828 0 1.5-.672 1.5-1.5l0-36.597c0-.828-.672-1.5-1.5-1.5-.827 0-1.5.672-1.5 1.5zM34.425 59.215c0-2.073-.824-4.06-2.289-5.526-1.466-1.465-3.453-2.289-5.526-2.289-.072 0-.144 0-.217 0-2.072 0-4.06.824-5.525 2.289-1.466 1.466-2.289 3.453-2.289 5.526 0 4.001 0 8.917 0 11.634 0 1.96 1.589 3.549 3.549 3.549l8.748 0c1.96 0 3.549-1.589 3.549-3.549l0-11.634zm-3 0l0 11.634c0 .303-.246.549-.549.549 0 0-8.748 0-8.748 0-.303 0-.549-.246-.549-.549l0-11.634c0-1.277.507-2.502 1.41-3.405.903-.903 2.127-1.41 3.404-1.41l.217 0c1.277 0 2.502.507 3.405 1.41.902.903 1.41 2.128 1.41 3.405z"></path><path d="M20.079,65.547l12.846,-0c0.828,-0 1.5,-0.672 1.5,-1.5c-0,-0.828 -0.672,-1.5 -1.5,-1.5l-12.846,-0c-0.828,-0 -1.5,0.672 -1.5,1.5c-0,0.828 0.672,1.5 1.5,1.5Z"></path><path d="M28.002 71.477l0-18.577c0-.828-.672-1.5-1.5-1.5-.828 0-1.5.672-1.5 1.5l0 18.577c0 .828.672 1.5 1.5 1.5.828 0 1.5-.672 1.5-1.5zM41.525 91.916l44.984 0c.828 0 1.5-.672 1.5-1.5 0-.828-.672-1.5-1.5-1.5l-44.984 0c-.828 0-1.5.672-1.5 1.5 0 .828.672 1.5 1.5 1.5zm-1.5-56.282l0 39.226c0 .828.672 1.5 1.5 1.5.828 0 1.5-.672 1.5-1.5l0-39.226c0-.828-.672-1.5-1.5-1.5-.828 0-1.5.672-1.5 1.5zm47.984 18.571l0-18.571c0-.828-.672-1.5-1.5-1.5-.827 0-1.5.672-1.5 1.5l0 18.571c0 .828.673 1.5 1.5 1.5.828 0 1.5-.672 1.5-1.5z"></path><path d="M79.102,66.915c0,0 0,0 0,0c-0.992,1.822 -1.583,4.053 -1.583,6.463c-0,6.374 4.154,11.372 8.99,11.372c4.837,0 8.991,-4.998 8.991,-11.372c0,-2.409 -0.591,-4.639 -1.579,-6.463c-0,-0.001 -0.001,-0.002 -0.002,-0.003c-0.605,-1.111 -0.839,-2.497 -0.668,-3.846c0,-0.002 0.001,-0.004 0.001,-0.005c0.052,-0.428 0.08,-0.867 0.08,-1.314c-0,-4.797 -3.183,-8.514 -6.823,-8.514c-3.64,-0 -6.822,3.717 -6.822,8.514c0,0.449 0.028,0.89 0.084,1.318c0.171,1.351 -0.063,2.738 -0.669,3.85Zm2.635,1.435c0.892,-1.637 1.262,-3.674 1.01,-5.662c-0,-0.003 -0.001,-0.005 -0.001,-0.007c-0.04,-0.304 -0.059,-0.616 -0.059,-0.934c0,-1.874 0.656,-3.551 1.722,-4.581c0.592,-0.572 1.311,-0.933 2.1,-0.933c0.79,-0 1.509,0.361 2.101,0.933c1.066,1.03 1.722,2.707 1.722,4.581c-0,0.322 -0.02,0.639 -0.058,0.947c-0.251,1.982 0.119,4.017 1.011,5.654c0.768,1.416 1.215,3.155 1.215,5.03c0,2.821 -1.006,5.337 -2.61,6.888c-0.951,0.918 -2.113,1.484 -3.381,1.484c-1.267,0 -2.429,-0.566 -3.38,-1.484c-1.604,-1.551 -2.61,-4.067 -2.61,-6.888c-0,-1.874 0.447,-3.612 1.218,-5.028l-0,0Z"></path><path d="M85.009 67.683l0 22.733c0 .828.673 1.5 1.5 1.5.828 0 1.5-.672 1.5-1.5l0-22.733c0-.828-.672-1.5-1.5-1.5-.827 0-1.5.672-1.5 1.5zM73.692 90.416l0-24.232c0-5.156-4.18-9.336-9.335-9.336-.226 0-.453 0-.679 0-5.156 0-9.335 4.18-9.335 9.336 0 8.909 0 13.503 0 13.503 0 .828.672 1.5 1.5 1.5.827 0 1.5-.672 1.5-1.5l0-13.503c0-3.499 2.836-6.335 6.335-6.336 0 0 .678 0 .678 0 3.5.001 6.336 2.837 6.336 6.336 0 0 0 24.232 0 24.232 0 .828.672 1.5 1.5 1.5.828 0 1.5-.672 1.5-1.5z"></path><path d="M59.671 70.81l0 2.4c0 .828.672 1.5 1.5 1.5.828 0 1.5-.672 1.5-1.5l0-2.4c0-.828-.672-1.5-1.5-1.5-.828 0-1.5.672-1.5 1.5zM41.943 37.134c.914 0 1.793-.352 2.453-.984l19.242-18.405c.212-.203.547-.203.759 0l19.242 18.405c.66.632 1.539.984 2.453.984l5.057 0c1.45 0 2.754-.882 3.294-2.227.54-1.346.207-2.884-.841-3.886-7.107-6.799-22.41-21.437-27.131-25.953-1.373-1.312-3.535-1.312-4.907 0l-27.132 25.953c-1.047 1.002-1.38 2.54-.84 3.886.54 1.345 1.844 2.227 3.293 2.227l5.058 0zm0-3l-5.058 0c-.224 0-.426-.136-.509-.344-.084-.208-.032-.446.13-.602l27.132-25.952c.212-.203.547-.203.759 0 0 0 27.132 25.952 27.132 25.952.162.156.213.394.13.602-.084.208-.285.344-.51.344l-5.057 0c-.142 0-.278-.054-.38-.152 0 0-19.241-18.405-19.241-18.405-1.373-1.313-3.535-1.313-4.907 0 0 0-19.242 18.405-19.242 18.405-.102.098-.238.152-.379.152z"></path><path d="M64.017 36.228c-3.299 0-5.978 2.679-5.978 5.978 0 3.3 2.679 5.979 5.978 5.979 3.3 0 5.979-2.679 5.979-5.979 0-3.299-2.679-5.978-5.979-5.978zm0 3c1.644 0 2.979 1.335 2.979 2.978 0 1.644-1.335 2.979-2.979 2.979-1.644 0-2.978-1.335-2.978-2.979 0-1.643 1.334-2.978 2.978-2.978zM4.11 91.652c.25.172.547.264.85.264l20.974 0c.528 0 1.018-.278 1.288-.732.495-.83.78-1.799.78-2.834 0-3.061-2.485-5.546-5.545-5.546-.111 0-.221.004-.331.01-.775-2.127-2.816-3.648-5.211-3.648-.603 0-1.184.096-1.728.275-1.526-1.814-3.813-2.967-6.367-2.967-4.592 0-8.32 3.728-8.32 8.32 0 2.844 1.43 5.358 3.61 6.858zm1.348-2.736c-1.195-.977-1.958-2.461-1.958-4.122 0-2.936 2.384-5.32 5.32-5.32 1.95 0 3.657 1.053 4.583 2.62.209.353.554.605.954.698.4.092.82.017 1.163-.209.4-.264.88-.417 1.395-.417 1.379 0 2.504 1.099 2.544 2.469.014.49.267.942.676 1.21.41.269.925.321 1.38.139.291-.116.609-.18.942-.18 1.404 0 2.545 1.141 2.545 2.546 0 .194-.022.384-.064.566 0 0-19.479 0-19.479 0l-.001 0zM37.808 91.652c.25.172.546.264.85.264l17.693 0c.528 0 1.018-.278 1.288-.732.439-.735.691-1.594.691-2.511 0-2.711-2.201-4.913-4.912-4.913-.041 0-.081.001-.121.002-.728-1.8-2.494-3.071-4.554-3.071-.479 0-.942.069-1.38.197-1.33-1.513-3.279-2.468-5.449-2.468-4.003 0-7.253 3.25-7.253 7.254 0 2.479 1.246 4.67 3.147 5.978zm1.355-2.736c-.919-.781-1.502-1.944-1.502-3.242 0-2.348 1.905-4.254 4.253-4.254 1.559 0 2.924.842 3.665 2.095.208.353.553.605.953.698.4.092.82.017 1.163-.209.301-.198.661-.313 1.048-.313 1.036 0 1.881.826 1.911 1.855.015.49.267.942.677 1.211.409.268.924.32 1.379.139.219-.088.458-.136.708-.136 1.055 0 1.912.857 1.912 1.913 0 .082-.005.163-.015.243 0 0-16.152 0-16.152 0l0 0zM73.581 91.916l20.419 0c.828 0 1.5-.672 1.5-1.5 0-.828-.672-1.5-1.5-1.5l-20.419 0c-.828 0-1.5.672-1.5 1.5 0 .828.672 1.5 1.5 1.5z"></path></svg>