<svg xmlns="http://www.w3.org/2000/svg" viewBox="0 0 64 64" id="property"><path fill="none" stroke="#4d4d4d" stroke-linecap="round" stroke-linejoin="round" stroke-miterlimit="10" d="M4 51.5h56"></path><path fill="#4d4d4d" d="M20 14v37H6V14h14m0-1H6c-.6 0-1 .4-1 1v37c0 .6.4 1 1 1h14c.6 0 1-.4 1-1V14c0-.6-.4-1-1-1z"></path><path fill="none" stroke="#4d4d4d" stroke-linecap="round" stroke-linejoin="round" stroke-miterlimit="10" d="M9.5 47.5v4M11.5 46.5c0 1.7-.3 3-2 3s-2-1.3-2-3 .3-4 2-4 2 2.3 2 4zM16.5 47.5v4M18.5 46.5c0 1.7-.3 3-2 3s-2-1.3-2-3 .3-4 2-4 2 2.3 2 4zM6 38.5h14M8.5 16.5h3M14.5 16.5h3M8.5 19.5h3M14.5 19.5h3M8.5 22.5h3M14.5 22.5h3M8.5 25.5h3M14.5 25.5h3M8.5 28.5h3M14.5 28.5h3M8.5 31.5h3M14.5 31.5h3"></path><path fill="#4d4d4d" d="M21 11v2H5v-2h16m0-1H5c-.6 0-1 .4-1 1v2c0 .6.4 1 1 1h16c.6 0 1-.4 1-1v-2c0-.6-.4-1-1-1zm37 20v21H31V30h27m0-1H31c-.6 0-1 .4-1 1v21c0 .6.4 1 1 1h27c.6 0 1-.4 1-1V30c0-.6-.4-1-1-1z"></path><path fill="#4d4d4d" d="M59 27v2H30v-2h29m0-1H30c-.6 0-1 .4-1 1v2c0 .6.4 1 1 1h29c.6 0 1-.4 1-1v-2c0-.6-.4-1-1-1zM44.5 44c1.4 0 2.5 1.1 2.5 2.5V51h-5v-4.5c0-1.4 1.1-2.5 2.5-2.5m0-1c-1.9 0-3.5 1.6-3.5 3.5V51c0 .6.4 1 1 1h5c.6 0 1-.4 1-1v-4.5c0-1.9-1.6-3.5-3.5-3.5z"></path><path fill="none" stroke="#4d4d4d" stroke-linecap="round" stroke-linejoin="round" stroke-miterlimit="10" d="M30 23.4h29M30.5 23.5V26M34.5 23.5V26M38.5 23.5V26M42.5 23.5V26M46.5 23.5V26M50.5 23.5V26M54.5 23.5V26M58.6 23.5V26"></path><path fill="#4d4d4d" d="M36.5 33c.8 0 1.5.7 1.5 1.5V36h-3v-1.5c0-.8.7-1.5 1.5-1.5m0-1c-1.4 0-2.5 1.1-2.5 2.5V36c0 .6.4 1 1 1h3c.6 0 1-.4 1-1v-1.5c0-1.4-1.1-2.5-2.5-2.5zm8 1c.8 0 1.5.7 1.5 1.5V36h-3v-1.5c0-.8.7-1.5 1.5-1.5m0-1c-1.4 0-2.5 1.1-2.5 2.5V36c0 .6.4 1 1 1h3c.6 0 1-.4 1-1v-1.5c0-1.4-1.1-2.5-2.5-2.5zm8 1c.8 0 1.5.7 1.5 1.5V36h-3v-1.5c0-.8.7-1.5 1.5-1.5m0-1c-1.4 0-2.5 1.1-2.5 2.5V36c0 .6.4 1 1 1h3c.6 0 1-.4 1-1v-1.5c0-1.4-1.1-2.5-2.5-2.5z"></path><path fill="none" stroke="#4d4d4d" stroke-linecap="round" stroke-linejoin="round" stroke-miterlimit="10" d="M31 40.5h27M21 15.5h13.5v7.8M34 15.5h1.5v-3H22"></path><path fill="#4d4d4d" d="M27 44v7h-3v-7h3m0-1h-3c-.6 0-1 .4-1 1v7c0 .6.4 1 1 1h3c.6 0 1-.4 1-1v-7c0-.6-.4-1-1-1z"></path><path fill="none" stroke="#4d4d4d" stroke-linecap="round" stroke-linejoin="round" stroke-miterlimit="10" d="M25.5 36.5V16M21 36.5h9M21 31.5h9M21 26.5h9M21 22.5h13M21 18.5h13"></path></svg>