<svg xmlns="http://www.w3.org/2000/svg" fill-rule="evenodd" stroke-linejoin="round" stroke-miterlimit="2" clip-rule="evenodd" viewBox="0 0 128 128" id="villa"><rect width="128" height="128" fill="none"></rect><g transform="matrix(1.29689 0 0 1.33333 -148.4 0)"><path d="M968.243,215.728L931.456,215.728C930.989,215.728 930.61,215.214 930.61,214.58C930.61,213.945 930.989,213.431 931.456,213.431L968.243,213.431L968.243,215.728Z" transform="matrix(-.72856 0 0 .52235 839.607 -54.472)"></path><path d="M913.062,177.244C912.314,177.243 911.708,176.729 911.708,176.095L911.708,140.958C911.708,140.324 912.315,139.809 913.063,139.809L968.243,139.809C968.991,139.809 969.598,140.324 969.598,140.958L969.598,176.127C969.598,176.432 969.455,176.724 969.201,176.939C968.946,177.155 968.602,177.276 968.242,177.276L913.062,177.244ZM914.418,174.947L966.888,174.977C966.888,174.977 966.888,142.107 966.888,142.107C966.888,142.107 914.418,142.107 914.418,142.107L914.418,174.947Z" transform="matrix(-.45528 0 0 .52235 615.203 -54.472)"></path><path d="M913.063,142.107C912.659,142.107 912.331,141.592 912.331,140.958L912.331,129.632C912.331,128.997 912.659,128.483 913.063,128.483L968.243,128.483C968.647,128.483 968.975,128.997 968.975,129.632L968.975,140.958C968.975,141.592 968.647,142.107 968.243,142.107L913.063,142.107ZM913.794,139.809L967.511,139.809C967.511,139.809 967.511,130.78 967.511,130.78C967.511,130.78 913.794,130.78 913.794,130.78L913.794,139.809Z" transform="matrix(-.8431 0 0 .52235 947.347 -54.472)"></path><path d="M913.063,142.107C912.33,142.107 911.735,141.592 911.735,140.958L911.735,129.632C911.735,128.997 912.33,128.483 913.063,128.483L968.243,128.483C968.976,128.483 969.571,128.997 969.571,129.632L969.571,140.958C969.571,141.592 968.976,142.107 968.243,142.107L913.063,142.107ZM914.391,139.809L966.915,139.809C966.915,139.809 966.915,130.78 966.915,130.78C966.915,130.78 914.391,130.78 914.391,130.78L914.391,139.809Z" transform="matrix(-.46459 0 0 .52235 627.376 -54.472)"></path><path d="M530.137,228.997L530.137,233.688C530.137,233.988 529.89,234.232 529.585,234.232C529.28,234.232 529.032,233.988 529.032,233.688L529.032,228.997C529.032,228.696 529.28,228.453 529.585,228.453C529.89,228.453 530.137,228.696 530.137,228.997Z" transform="matrix(-1.11673 0 0 1.10345 726.674 -190.635)"></path><path d="M530.137,228.997L530.137,233.816C530.137,233.982 529.89,234.116 529.585,234.116C529.28,234.116 529.032,233.982 529.032,233.816L529.032,228.997C529.032,228.831 529.28,228.696 529.585,228.696C529.89,228.696 530.137,228.831 530.137,228.997Z" transform="matrix(-1.11673 0 0 1.99504 726.674 -386.671)"></path><path d="M530.137,228.997L530.137,233.688C530.137,233.988 529.89,234.232 529.585,234.232C529.28,234.232 529.032,233.988 529.032,233.688L529.032,228.997C529.032,228.696 529.28,228.453 529.585,228.453C529.89,228.453 530.137,228.696 530.137,228.997Z" transform="matrix(-1.11673 0 0 1.10345 712.989 -190.635)"></path><path d="M530.137,228.997L530.137,233.816C530.137,233.982 529.89,234.116 529.585,234.116C529.28,234.116 529.032,233.982 529.032,233.816L529.032,228.997C529.032,228.831 529.28,228.696 529.585,228.696C529.89,228.696 530.137,228.831 530.137,228.997Z" transform="matrix(-1.11673 0 0 1.99504 712.989 -386.671)"></path><path d="M530.137,228.997L530.137,233.688C530.137,233.988 529.89,234.232 529.585,234.232C529.28,234.232 529.032,233.988 529.032,233.688L529.032,228.997C529.032,228.696 529.28,228.453 529.585,228.453C529.89,228.453 530.137,228.696 530.137,228.997Z" transform="matrix(-1.11673 0 0 1.10345 731.236 -190.635)"></path><path d="M530.137,228.997L530.137,233.816C530.137,233.982 529.89,234.116 529.585,234.116C529.28,234.116 529.032,233.982 529.032,233.816L529.032,228.997C529.032,228.831 529.28,228.696 529.585,228.696C529.89,228.696 530.137,228.831 530.137,228.997Z" transform="matrix(-1.11673 0 0 1.99504 731.236 -386.671)"></path><path d="M530.137,229.844L530.137,233.775C530.137,233.838 529.89,233.889 529.585,233.889C529.28,233.889 529.032,233.838 529.032,233.775L529.032,229.844C529.032,229.781 529.28,229.73 529.585,229.73C529.89,229.73 530.137,229.781 530.137,229.844Z" transform="matrix(-1.11673 0 0 5.26651 733.211 -1188.36)"></path><path d="M530.137,228.997L530.137,233.816C530.137,234.175 529.89,234.467 529.585,234.467C529.28,234.467 529.032,234.175 529.032,233.816L529.032,228.997C529.032,228.637 529.28,228.345 529.585,228.345C529.89,228.345 530.137,228.637 530.137,228.997Z" transform="matrix(-1.11673 0 0 .92079 755.694 -156.201)"></path><path d="M530.137,228.997L530.137,233.816C530.137,234.508 529.89,235.071 529.585,235.071C529.28,235.071 529.032,234.508 529.032,233.816L529.032,228.997C529.032,228.304 529.28,227.741 529.585,227.741C529.89,227.741 530.137,228.304 530.137,228.997Z" transform="matrix(-1.11673 0 0 .47796 783.303 -54.796)"></path><path d="M530.137,228.997L530.137,233.688C530.137,233.988 529.89,234.232 529.585,234.232C529.28,234.232 529.032,233.988 529.032,233.688L529.032,228.997C529.032,228.696 529.28,228.453 529.585,228.453C529.89,228.453 530.137,228.696 530.137,228.997Z" transform="matrix(-1.11673 0 0 1.10345 717.551 -190.635)"></path><path d="M530.137,228.997L530.137,233.816C530.137,233.982 529.89,234.116 529.585,234.116C529.28,234.116 529.032,233.982 529.032,233.816L529.032,228.997C529.032,228.831 529.28,228.696 529.585,228.696C529.89,228.696 530.137,228.831 530.137,228.997Z" transform="matrix(-1.11673 0 0 1.99504 717.551 -386.671)"></path><path d="M530.137,228.997L530.137,233.688C530.137,233.988 529.89,234.232 529.585,234.232C529.28,234.232 529.032,233.988 529.032,233.688L529.032,228.997C529.032,228.696 529.28,228.453 529.585,228.453C529.89,228.453 530.137,228.696 530.137,228.997Z" transform="matrix(-1.11673 0 0 1.10345 735.798 -190.635)"></path><path d="M530.137,228.997L530.137,233.816C530.137,233.982 529.89,234.116 529.585,234.116C529.28,234.116 529.032,233.982 529.032,233.816L529.032,228.997C529.032,228.831 529.28,228.696 529.585,228.696C529.89,228.696 530.137,228.831 530.137,228.997Z" transform="matrix(-1.11673 0 0 1.99504 735.798 -386.671)"></path><path d="M530.137,229.844L530.137,233.775C530.137,233.838 529.89,233.889 529.585,233.889C529.28,233.889 529.032,233.838 529.032,233.775L529.032,229.844C529.032,229.781 529.28,229.73 529.585,229.73C529.89,229.73 530.137,229.781 530.137,229.844Z" transform="matrix(-1.11673 0 0 5.26651 737.773 -1188.36)"></path><path d="M530.137,228.997L530.137,234.619C530.137,234.709 529.89,234.782 529.585,234.782C529.28,234.782 529.032,234.709 529.032,234.619L529.032,228.997C529.032,228.907 529.28,228.834 529.585,228.834C529.89,228.834 530.137,228.907 530.137,228.997Z" transform="matrix(-1.11673 0 0 3.68315 760.256 -781.377)"></path><path d="M530.137,228.997L530.137,234.619C530.137,234.792 529.89,234.933 529.585,234.933C529.28,234.933 529.032,234.792 529.032,234.619L529.032,228.997C529.032,228.823 529.28,228.683 529.585,228.683C529.89,228.683 530.137,228.823 530.137,228.997Z" transform="matrix(-1.11673 0 0 1.91185 788.625 -379.313)"></path><path d="M530.137,228.997L530.137,233.816C530.137,234.031 529.89,234.207 529.585,234.207C529.28,234.207 529.032,234.031 529.032,233.816L529.032,228.997C529.032,228.781 529.28,228.606 529.585,228.606C529.89,228.606 530.137,228.781 530.137,228.997Z" transform="matrix(-1.11673 0 0 1.53464 760.256 -296.772)"></path><path d="M530.137,228.997L530.137,233.816C530.137,234.231 529.89,234.569 529.585,234.569C529.28,234.569 529.032,234.231 529.032,233.816L529.032,228.997C529.032,228.581 529.28,228.243 529.585,228.243C529.89,228.243 530.137,228.581 530.137,228.997Z" transform="matrix(-1.11673 0 0 .7966 788.625 -127.764)"></path><path d="M530.137,230.079L530.137,232.745C530.137,232.825 529.89,232.89 529.585,232.89C529.28,232.89 529.032,232.825 529.032,232.745L529.032,230.079C529.032,229.999 529.28,229.933 529.585,229.933C529.89,229.933 530.137,229.999 530.137,230.079Z" transform="matrix(-1.11673 0 0 4.12162 756.02 -926.181)"></path><path d="M530.137,228.997L530.137,233.688C530.137,233.988 529.89,234.232 529.585,234.232C529.28,234.232 529.032,233.988 529.032,233.688L529.032,228.997C529.032,228.696 529.28,228.453 529.585,228.453C529.89,228.453 530.137,228.696 530.137,228.997Z" transform="matrix(-1.11673 0 0 1.10345 722.113 -190.635)"></path><path d="M530.137,228.997L530.137,233.816C530.137,233.982 529.89,234.116 529.585,234.116C529.28,234.116 529.032,233.982 529.032,233.816L529.032,228.997C529.032,228.831 529.28,228.696 529.585,228.696C529.89,228.696 530.137,228.831 530.137,228.997Z" transform="matrix(-1.11673 0 0 1.99504 722.113 -386.671)"></path><path d="M530.137,228.997L530.137,233.688C530.137,233.988 529.89,234.232 529.585,234.232C529.28,234.232 529.032,233.988 529.032,233.688L529.032,228.997C529.032,228.696 529.28,228.453 529.585,228.453C529.89,228.453 530.137,228.696 530.137,228.997Z" transform="matrix(-1.11673 0 0 1.10345 740.36 -190.635)"></path><path d="M530.137,228.997L530.137,233.816C530.137,233.982 529.89,234.116 529.585,234.116C529.28,234.116 529.032,233.982 529.032,233.816L529.032,228.997C529.032,228.831 529.28,228.696 529.585,228.696C529.89,228.696 530.137,228.831 530.137,228.997Z" transform="matrix(-1.11673 0 0 1.99504 740.36 -386.671)"></path><path d="M530.137,229.844L530.137,233.775C530.137,233.838 529.89,233.889 529.585,233.889C529.28,233.889 529.032,233.838 529.032,233.775L529.032,229.844C529.032,229.781 529.28,229.73 529.585,229.73C529.89,229.73 530.137,229.781 530.137,229.844Z" transform="matrix(-1.11673 0 0 5.26651 742.335 -1188.36)"></path><path d="M530.137,228.997L530.137,234.619C530.137,234.709 529.89,234.782 529.585,234.782C529.28,234.782 529.032,234.709 529.032,234.619L529.032,228.997C529.032,228.907 529.28,228.834 529.585,228.834C529.89,228.834 530.137,228.907 530.137,228.997Z" transform="matrix(-1.11673 0 0 3.68315 765.578 -781.377)"></path><path d="M530.137,228.997L530.137,234.619C530.137,234.792 529.89,234.933 529.585,234.933C529.28,234.933 529.032,234.792 529.032,234.619L529.032,228.997C529.032,228.823 529.28,228.683 529.585,228.683C529.89,228.683 530.137,228.823 530.137,228.997Z" transform="matrix(-1.11673 0 0 1.91185 793.948 -379.313)"></path><path d="M530.137,228.997L530.137,233.816C530.137,234.031 529.89,234.207 529.585,234.207C529.28,234.207 529.032,234.031 529.032,233.816L529.032,228.997C529.032,228.781 529.28,228.606 529.585,228.606C529.89,228.606 530.137,228.781 530.137,228.997Z" transform="matrix(-1.11673 0 0 1.53464 765.578 -296.772)"></path><path d="M530.137,228.997L530.137,233.816C530.137,234.231 529.89,234.569 529.585,234.569C529.28,234.569 529.032,234.231 529.032,233.816L529.032,228.997C529.032,228.581 529.28,228.243 529.585,228.243C529.89,228.243 530.137,228.581 530.137,228.997Z" transform="matrix(-1.11673 0 0 .7966 793.948 -127.764)"></path><path d="M530.137,228.997L530.137,233.816C530.137,234.175 529.89,234.467 529.585,234.467C529.28,234.467 529.032,234.175 529.032,233.816L529.032,228.997C529.032,228.637 529.28,228.345 529.585,228.345C529.89,228.345 530.137,228.637 530.137,228.997Z" transform="matrix(-1.11673 0 0 .92079 771.661 -156.201)"></path><path d="M530.137,228.997L530.137,233.816C530.137,234.508 529.89,235.071 529.585,235.071C529.28,235.071 529.032,234.508 529.032,233.816L529.032,228.997C529.032,228.304 529.28,227.741 529.585,227.741C529.89,227.741 530.137,228.304 530.137,228.997Z" transform="matrix(-1.11673 0 0 .47796 799.27 -54.796)"></path><path d="M967.924,127.697C968.648,127.697 969.235,128.563 969.235,129.632L969.235,261.273C969.235,262.342 968.648,263.208 967.924,263.208L913.343,263.208C912.619,263.208 912.032,262.342 912.032,261.273L912.032,129.632C912.032,128.563 912.619,127.697 913.343,127.697L967.924,127.697ZM966.613,131.566L914.654,131.566C914.654,131.566 914.654,259.339 914.654,259.339C914.654,259.339 966.613,259.339 966.613,259.339L966.613,131.566Z" transform="matrix(-.47058 0 0 .31014 616.467 1.727)"></path><path d="M967.924,127.697C968.648,127.697 969.235,128.563 969.235,129.632L969.235,261.273C969.235,262.342 968.648,263.208 967.924,263.208L913.343,263.208C912.619,263.208 912.032,262.342 912.032,261.273L912.032,129.632C912.032,128.563 912.619,127.697 913.343,127.697L967.924,127.697ZM966.613,131.566L914.654,131.566C914.654,131.566 914.654,259.339 914.654,259.339C914.654,259.339 966.613,259.339 966.613,259.339L966.613,131.566Z" transform="matrix(-.47058 0 0 .31014 642.152 1.727)"></path><path d="M967.924,126.516C968.33,126.516 968.66,127.911 968.66,129.632L968.66,260.214C968.66,261.935 968.33,263.33 967.924,263.33L913.343,263.33C912.937,263.33 912.608,261.935 912.608,260.214L912.608,129.632C912.608,127.911 912.937,126.516 913.343,126.516L967.924,126.516ZM967.189,132.748L914.078,132.748C914.078,132.748 914.078,257.098 914.078,257.098C914.078,257.098 967.189,257.098 967.189,257.098L967.189,132.748Z" transform="matrix(-.83886 0 0 .19256 927.147 32.653)"></path><path d="M967.924,114.497C968.434,114.497 968.847,121.273 968.847,129.632L968.847,260.214C968.847,268.572 968.434,275.348 967.924,275.348L913.343,275.348C912.834,275.348 912.42,268.572 912.42,260.214L912.42,129.632C912.42,121.273 912.834,114.497 913.343,114.497L967.924,114.497ZM967.002,144.766L914.266,144.766C914.266,144.766 914.266,245.079 914.266,245.079C914.266,245.079 967.002,245.079 967.002,245.079L967.002,144.766Z" transform="matrix(-.66865 0 0 .03964 765.746 56.912)"></path><path d="M967.924,125.848C968.943,125.848 969.769,127.542 969.769,129.632L969.769,260.214C969.769,262.303 968.943,263.997 967.924,263.997L913.343,263.997C912.324,263.997 911.498,262.303 911.498,260.214L911.498,129.632C911.498,127.542 912.324,125.848 913.343,125.848L967.924,125.848ZM966.079,133.415L915.188,133.415C915.188,133.415 915.188,256.43 915.188,256.43C915.188,256.43 966.079,256.43 966.079,256.43L966.079,133.415Z" transform="matrix(-.33432 0 0 .15858 461.608 1.56)"></path><path d="M967.924,122.569C969.962,122.569 971.614,125.731 971.614,129.632L971.614,260.214C971.614,264.114 969.962,267.277 967.924,267.277L913.343,267.277C911.305,267.277 909.653,264.114 909.653,260.214L909.653,129.632C909.653,125.731 911.305,122.569 913.343,122.569L967.924,122.569ZM964.234,136.694L917.033,136.694C917.033,136.694 917.033,253.151 917.033,253.151C917.033,253.151 964.234,253.151 964.234,253.151L964.234,136.694Z" transform="matrix(-.16716 0 0 .08495 322.617 11.104)"></path><path d="M967.924,121.482C968.434,121.482 968.847,125.131 968.847,129.632L968.847,260.214C968.847,264.714 968.434,268.363 967.924,268.363L913.343,268.363C912.834,268.363 912.42,264.714 912.42,260.214L912.42,129.632C912.42,125.131 912.834,121.482 913.343,121.482L967.924,121.482ZM967.002,137.781L914.266,137.781C914.266,137.781 914.266,252.064 914.266,252.064C914.266,252.064 967.002,252.064 967.002,252.064L967.002,137.781Z" transform="matrix(-.66865 0 0 .07362 765.746 60.642)"></path><path d="M967.924,125.217C969.089,125.217 970.033,127.194 970.033,129.632L970.033,281.977C970.033,284.415 969.089,286.392 967.924,286.392L913.343,286.392C912.178,286.392 911.234,284.415 911.234,281.977L911.234,129.632C911.234,127.194 912.178,125.217 913.343,125.217L967.924,125.217ZM965.816,134.046L915.452,134.046C915.452,134.046 915.452,277.563 915.452,277.563C915.452,277.563 965.816,277.563 965.816,277.563L965.816,134.046Z" transform="matrix(-.29253 0 0 .13592 447.443 44.431)"></path><path d="M967.924,121.128C969.089,121.128 970.033,124.935 970.033,129.632L970.033,281.977C970.033,286.674 969.089,290.481 967.924,290.481L913.343,290.481C912.178,290.481 911.234,286.674 911.234,281.977L911.234,129.632C911.234,124.935 912.178,121.128 913.343,121.128L967.924,121.128ZM965.816,138.136L915.452,138.136C915.452,138.136 915.452,273.473 915.452,273.473C915.452,273.473 965.816,273.473 965.816,273.473L965.816,138.136Z" transform="matrix(-.29253 0 0 .07056 475.052 49.349)"></path><path d="M967.924,119.037C969.089,119.037 970.033,123.781 970.033,129.632L970.033,260.214C970.033,266.065 969.089,270.808 967.924,270.808L913.343,270.808C912.178,270.808 911.234,266.065 911.234,260.214L911.234,129.632C911.234,123.781 912.178,119.037 913.343,119.037L967.924,119.037ZM965.816,140.226L915.452,140.226C915.452,140.226 915.452,249.62 915.452,249.62C915.452,249.619 965.816,249.619 965.816,249.619L965.816,140.226Z" transform="matrix(-.29253 0 0 .05663 447.443 47.314)"></path><path d="M967.924,109.222C969.089,109.222 970.033,118.36 970.033,129.632L970.033,260.214C970.033,271.486 969.089,280.623 967.924,280.623L913.343,280.623C912.178,280.623 911.234,271.486 911.234,260.214L911.234,129.632C911.234,118.36 912.178,109.222 913.343,109.222L967.924,109.222ZM965.816,150.041L915.452,150.041C915.452,150.041 915.452,239.804 915.452,239.804C915.452,239.804 965.816,239.804 965.816,239.804L965.816,150.041Z" transform="matrix(-.29253 0 0 .0294 475.052 50.845)"></path><path d="M967.924,117.86C969.089,117.86 970.033,123.13 970.033,129.632L970.033,260.214C970.033,266.715 969.089,271.985 967.924,271.985L913.343,271.985C912.178,271.985 911.234,266.715 911.234,260.214L911.234,129.632C911.234,123.13 912.178,117.86 913.343,117.86L967.924,117.86ZM965.816,141.403L915.452,141.403C915.452,141.403 915.452,248.442 915.452,248.442C915.452,248.442 965.816,248.442 965.816,248.442L965.816,141.403Z" transform="matrix(-.29253 0 0 .05097 447.443 38.434)"></path><path d="M967.924,103.146C968.359,103.146 968.712,115.004 968.712,129.632L968.712,260.214C968.712,274.841 968.359,286.699 967.924,286.699L913.343,286.699C912.908,286.699 912.555,274.841 912.555,260.214L912.555,129.632C912.555,115.004 912.908,103.146 913.343,103.146L967.924,103.146ZM967.137,156.117L914.131,156.117C914.131,156.117 914.131,233.728 914.131,233.728C914.131,233.728 967.137,233.728 967.137,233.728L967.137,156.117Z" transform="matrix(-.78314 0 0 .02265 876.255 51.72)"></path><path d="M40.397,165.835C40.242,165.741 40.065,165.741 39.91,165.835L31.938,170.719C31.686,170.873 31.548,171.244 31.607,171.608C31.665,171.973 31.905,172.233 32.181,172.233L48.125,172.233C48.402,172.233 48.641,171.973 48.7,171.608C48.759,171.244 48.621,170.873 48.369,170.719L40.397,165.835ZM40.153,167.427L45.411,170.648C45.411,170.648 34.896,170.648 34.896,170.648L40.153,167.427Z" transform="matrix(1.04912 0 0 .75715 107.287 -78.849)"></path><path d="M40.397,165.835C40.242,165.741 40.065,165.741 39.91,165.835L31.938,170.719C31.686,170.873 31.548,171.244 31.607,171.608C31.665,171.973 31.905,172.233 32.181,172.233L48.125,172.233C48.402,172.233 48.641,171.973 48.7,171.608C48.759,171.244 48.621,170.873 48.369,170.719L40.397,165.835ZM40.153,167.427L45.411,170.648C45.411,170.648 34.896,170.648 34.896,170.648L40.153,167.427Z" transform="matrix(1.04912 0 0 .75715 87.518 -78.849)"></path><path d="M19.189,171.671L19.189,176.671C19.189,176.919 19.552,177.121 20,177.121C20.448,177.121 20.811,176.919 20.811,176.671L20.811,171.671C20.811,171.422 20.448,171.22 20,171.22C19.552,171.22 19.189,171.422 19.189,171.671Z" transform="matrix(.76032 0 0 1.33118 114.438 -177.567)"></path><path d="M19.189,171.671L19.189,176.671C19.189,176.781 19.552,176.871 20,176.871C20.448,176.871 20.811,176.781 20.811,176.671L20.811,171.671C20.811,171.56 20.448,171.47 20,171.47C19.552,171.47 19.189,171.56 19.189,171.671Z" transform="matrix(.76032 0 0 2.99261 108.432 -471.092)"></path><path d="M19.189,171.671L19.189,176.671C19.189,176.919 19.552,177.121 20,177.121C20.448,177.121 20.811,176.919 20.811,176.671L20.811,171.671C20.811,171.422 20.448,171.22 20,171.22C19.552,171.22 19.189,171.422 19.189,171.671Z" transform="matrix(.76032 0 0 1.33118 134.206 -177.567)"></path><path d="M31,125.482L73,125.482C73.448,125.482 73.811,125.118 73.811,124.671C73.811,124.223 73.448,123.859 73,123.859L31,123.859C30.552,123.859 30.189,124.223 30.189,124.671C30.189,125.118 30.552,125.482 31,125.482Z" transform="matrix(.76032 0 0 .73955 114.438 -76)"></path><path d="M1.987,152.999C1.986,153.002 1.984,153.004 1.983,153.006C1.077,154.54 0.555,156.328 0.555,158.237C0.555,163.975 5.259,168.596 10.998,168.596C16.737,168.596 21.441,163.975 21.441,158.237C21.441,156.325 20.918,154.536 20.001,153.005C20.001,153.005 20,153.004 20,153.003C19.123,151.546 18.759,149.87 18.96,148.211C18.96,148.21 18.96,148.209 18.96,148.208C18.996,147.903 19.015,147.594 19.015,147.28C19.015,142.88 15.398,139.347 10.998,139.347C6.599,139.347 2.982,142.88 2.982,147.28C2.982,147.579 2.999,147.874 3.02,148.165C3.021,148.181 3.023,148.196 3.025,148.212C3.225,149.869 2.863,151.543 1.987,152.999ZM4.026,154.047C5.133,152.201 5.593,150.082 5.342,147.983C5.326,147.761 5.312,147.522 5.312,147.28C5.312,144.116 7.835,141.509 10.998,141.509C14.162,141.509 16.685,144.116 16.685,147.28C16.685,147.514 16.671,147.745 16.644,147.972C16.39,150.077 16.852,152.206 17.966,154.057C18.697,155.278 19.111,156.71 19.111,158.237C19.111,162.739 15.501,166.434 10.998,166.434C6.495,166.434 2.885,162.739 2.885,158.237C2.885,156.708 3.3,155.275 4.026,154.047L4.026,154.047Z" transform="matrix(.52948 0 0 .55506 117.795 -46.556)"></path><path d="M110.944,110.668C110.927,110.666 110.909,110.666 110.891,110.666L77.844,110.666L77.844,110.669C77.63,110.665 77.416,110.665 77.202,110.667C71.424,110.73 65.607,112.821 59.764,116.782C59.469,116.982 59.339,117.351 59.443,117.691C59.548,118.032 59.862,118.264 60.219,118.264L127.781,118.264C128.132,118.264 128.442,118.04 128.552,117.707C128.661,117.374 128.545,117.009 128.263,116.8C122.541,112.576 116.777,110.604 110.983,110.667L110.944,110.668ZM110.888,112.288L110.891,112.291L111.001,112.29C115.75,112.238 120.471,113.656 125.169,116.642L63.013,116.642C67.773,113.836 72.506,112.341 77.219,112.29L77.844,112.291L77.848,112.288L110.888,112.288ZM110.888,112.288C110.838,112.283 110.079,112.191 110.079,111.477C110.079,111.292 110.839,112.227 110.888,112.288Z" transform="matrix(.76032 0 0 .73955 115.198 -44.93)"></path><path d="M61.179,56.335C66.531,52.778 71.85,50.874 77.143,50.817C77.344,50.814 77.545,50.815 77.746,50.818C77.96,50.822 78.167,50.739 78.32,50.588C78.473,50.438 78.559,50.233 78.559,50.018L78.559,25.544C78.559,25.102 78.2,24.744 77.759,24.744L25.621,24.744C25.179,24.744 24.821,25.102 24.821,25.544L24.821,65.689C24.821,66.003 25.004,66.288 25.29,66.417L26.889,67.144C26.889,67.144 25.621,67.144 25.621,67.144C25.179,67.144 24.821,67.502 24.821,67.944L24.821,76.819C24.821,77.261 25.179,77.619 25.621,77.619L60.379,77.619C60.821,77.619 61.179,77.261 61.179,76.819L61.179,56.335ZM76.959,49.219C71.316,49.319 65.636,51.379 59.93,55.246L60.379,56.708L59.579,55.908L59.579,76.019C59.579,76.019 26.421,76.019 26.421,76.019C26.421,76.019 26.421,68.744 26.421,68.744C26.421,68.744 30.582,68.744 30.582,68.744C30.958,68.744 31.284,68.482 31.364,68.114C31.443,67.746 31.256,67.372 30.913,67.216L26.421,65.174C26.421,65.174 26.421,26.344 26.421,26.344C26.421,26.344 76.959,26.344 76.959,26.344L76.959,49.219Z" transform="matrix(.77107 0 0 .75 114.427 0)"></path><path d="M968.66,128.03L967.924,131.566L913.343,131.566L912.564,128.075C931.032,107.952 949.744,109.109 968.66,128.03ZM913.41,131.564L913.403,131.564L913.426,131.562L913.41,131.564ZM913.477,131.556L913.462,131.558L913.49,131.554L913.477,131.556ZM913.607,131.527C913.586,131.533 913.564,131.538 913.543,131.544L913.602,131.528L913.607,131.527ZM913.671,131.505L913.654,131.511L913.7,131.493L913.671,131.505ZM913.939,131.355C913.865,131.411 913.787,131.456 913.706,131.49C913.786,131.456 913.864,131.411 913.939,131.355ZM913.968,131.333L913.948,131.348L913.985,131.318L913.968,131.333ZM914.023,131.286L913.999,131.307L914.033,131.277L914.023,131.286ZM914.076,131.236L914.048,131.262L914.079,131.233L914.097,131.214L914.076,131.236ZM914.128,131.181L914.125,131.184L914.128,131.181ZM917.569,127.697C932.685,113.535 947.972,114.287 963.406,127.697L917.569,127.697Z" transform="matrix(-.47058 0 0 .31014 616.467 1.727)"></path></g></svg>